<?xml version="1.0" encoding="utf-8"?>
<!-- Generator: Adobe Illustrator 28.3.0, SVG Export Plug-In . SVG Version: 6.00 Build 0)  -->
<svg version="1.1" xmlns="http://www.w3.org/2000/svg" xmlns:xlink="http://www.w3.org/1999/xlink" x="0px" y="0px"
	 viewBox="0 0 1080 1920" style="enable-background:new 0 0 1080 1920;" xml:space="preserve">
<style type="text/css">
	.st0{display:none;}
	.st1{display:inline;fill:#FFFFFF;}
	.st2{display:inline;}
	.st3{fill:#FFFFFF;}
	.st4{fill:none;}
	.st5{stroke:#000000;stroke-width:0.25;stroke-miterlimit:10;}
	.st6{fill:none;stroke:#000000;stroke-width:0.25;stroke-miterlimit:10;}
	.st7{display:inline;fill-rule:evenodd;clip-rule:evenodd;stroke:#000000;stroke-width:0.75;stroke-miterlimit:10;}
	.st8{display:inline;stroke:#000000;stroke-width:0.75;stroke-miterlimit:10;}
	.st9{fill-rule:evenodd;clip-rule:evenodd;stroke:#000000;stroke-width:0.75;stroke-miterlimit:10;}
	.st10{stroke:#000000;stroke-width:0.75;stroke-miterlimit:10;}
	.st11{fill-rule:evenodd;clip-rule:evenodd;fill:none;stroke:#000000;stroke-width:13;stroke-miterlimit:10;}
	.st12{fill:none;stroke:#000000;stroke-width:13;stroke-miterlimit:10;}
</style>
<g id="Calque_8" class="st0">
	<path class="st1" d="M1036.42,1584.77h-934c-24.85,0-45-20.15-45-45v-934c0-24.85,20.15-45,45-45h934c24.85,0,45,20.15,45,45v934
		C1081.42,1564.62,1061.27,1584.77,1036.42,1584.77z"/>
</g>
<g id="Calque_1" class="st0">
	<g class="st2">
		<path class="st3" d="M570,1269.88c-99.18,0-179.88-80.69-179.88-179.88S470.82,910.12,570,910.12S749.88,990.82,749.88,1090
			S669.18,1269.88,570,1269.88z"/>
		<path d="M570,910.25c24.27,0,47.81,4.75,69.97,14.13c21.4,9.05,40.63,22.01,57.14,38.52s29.47,35.73,38.52,57.14
			c9.37,22.16,14.13,45.7,14.13,69.97s-4.75,47.81-14.13,69.97c-9.05,21.4-22.01,40.63-38.52,57.14
			c-16.51,16.51-35.73,29.47-57.14,38.52c-22.16,9.37-45.7,14.13-69.97,14.13s-47.81-4.75-69.97-14.13
			c-21.4-9.05-40.63-22.01-57.14-38.52c-16.51-16.51-29.47-35.73-38.52-57.14c-9.37-22.16-14.13-45.7-14.13-69.97
			s4.75-47.81,14.13-69.97c9.05-21.4,22.01-40.63,38.52-57.14s35.73-29.47,57.14-38.52C522.19,915,545.73,910.25,570,910.25
			 M570,910c-99.41,0-180,80.59-180,180s80.59,180,180,180s180-80.59,180-180S669.41,910,570,910L570,910z"/>
	</g>
</g>
<g id="n">
	<g>
		<ellipse class="st4" cx="570.11" cy="1101" rx="337.34" ry="327.82"/>
		<path class="st5" d="M600.45,773.57c-3.89,0.06-6.28-2.45-6.35-6.67l-0.84-53.08c-0.24-14.94-8.33-23.43-22.89-23.2
			c-17,0.27-27.03,12.47-26.74,30.66l0.73,46.4c0.07,4.22-2.24,6.8-6.13,6.86c-3.89,0.06-6.28-2.45-6.35-6.67l-1.26-79.97
			c-0.07-4.22,2.33-6.89,6.22-6.95c3.8-0.06,6.19,2.54,6.26,6.76l0.18,11.16l0.63-0.01c3.62-11.4,13.72-18.94,29.1-19.18
			c20.08-0.31,32.46,10.74,32.77,30.34l0.9,56.68C606.74,770.92,604.34,773.51,600.45,773.57z"/>
	</g>
</g>
<g id="a">
	<g>
		<ellipse class="st4" cx="570.11" cy="1101" rx="337.34" ry="327.82"/>
		<path class="st5" d="M723.13,810.45c-16.33-8.58-22.03-24.38-14.26-39.17c7.73-14.71,23.36-18.01,41.53-8.46l23.3,12.24l4.7-8.95
			c5.93-11.28,2.07-20.85-10.82-27.63c-7.85-4.12-14.88-4.15-23.08-0.41c-2.79,1.22-4.63,1.04-6.79-0.1
			c-2.64-1.39-3.5-4.03-2.07-6.75c2.25-4.28,8.22-7.1,16.27-7.44c6.28-0.28,13.26,1.41,21.26,5.61
			c19.46,10.22,25.36,25.24,16.45,42.2l-26.86,51.12c-1.96,3.73-5.15,4.94-8.51,3.17c-3.36-1.77-4.18-5.08-2.22-8.81l3.27-6.22
			l-0.48-0.25C745.92,816.27,734.1,816.22,723.13,810.45z M730.72,802.43c12.73,6.69,26.91,3.22,32.8-7.98l5.27-10.04l-23.06-12.12
			c-11.45-6.02-20.51-4.32-25.29,4.78C715.54,786.41,719.59,796.58,730.72,802.43z"/>
	</g>
	<g>
		<ellipse class="st4" cx="570.11" cy="1101" rx="337.34" ry="327.82"/>
		<path class="st5" d="M294.67,914.25c-11.11,14.73-27.62,17.8-40.96,7.75c-13.27-10-14-25.96-1.65-42.35l15.84-21.02l-8.07-6.08
			c-10.18-7.67-20.25-5.41-29.01,6.22c-5.34,7.08-6.5,14.02-4.13,22.71c0.75,2.94,0.28,4.74-1.19,6.69c-1.8,2.38-4.54,2.81-7,0.96
			c-3.86-2.91-5.68-9.26-4.71-17.26c0.74-6.24,3.53-12.86,8.97-20.08c13.23-17.55,29-20.95,44.3-9.42l46.12,34.76
			c3.37,2.54,4.04,5.88,1.76,8.91s-5.68,3.3-9.05,0.77l-5.62-4.23l-0.33,0.43C304.09,892.7,302.12,904.36,294.67,914.25z
			 M287.97,905.47c8.66-11.48,7.52-26.04-2.58-33.66l-9.05-6.82l-15.68,20.8c-7.79,10.33-7.58,19.54,0.63,25.73
			C269.71,917.87,280.4,915.51,287.97,905.47z"/>
	</g>
	<g>
		<ellipse class="st4" cx="570.11" cy="1101" rx="337.34" ry="327.82"/>
		<path class="st5" d="M353.34,702.56c4.49-2.34,9.48-0.99,11.72,3.3s0.58,9.32-3.91,11.66c-4.17,2.18-9.32,0.71-11.56-3.58
			S349.17,704.74,353.34,702.56z M411.02,812.84c-3.13,1.63-6.59,0.86-8.66-3.11l-37.06-70.98c-2.12-4.05-0.65-7.3,2.48-8.93
			c3.13-1.63,6.51-0.82,8.58,3.15l37.06,70.98C415.54,808,414.15,811.21,411.02,812.84z"/>
	</g>
	<g>
		<ellipse class="st4" cx="570.11" cy="1101" rx="337.34" ry="327.82"/>
		<path class="st5" d="M910.85,910.62l-11.67,8.61c-20.72,15.29-42.65,10-55.96-8.05c-13.42-18.2-11.96-40.64,8.77-55.93l11.67-8.61
			c20.79-15.34,42.59-10.07,56.02,8.12C932.98,872.82,931.57,895.33,910.85,910.62z M870.1,857.62l-9.55,7.04
			c-15.42,11.38-18.24,26.95-8.57,40.05c9.72,13.17,25.3,15.05,40.79,3.62l9.55-7.04c15.13-11.17,18.24-26.95,8.57-40.05
			C901.23,848.14,885.31,846.4,870.1,857.62z"/>
	</g>
</g>
<g id="Calque_2" class="st0">
	<g class="st2">
		<line class="st6" x1="820.02" y1="1047.67" x2="320.02" y2="1047.67"/>
	</g>
	<g class="st2">
		<line class="st6" x1="570.02" y1="797.67" x2="570.02" y2="1297.67"/>
	</g>
	<g class="st2">
		<line class="st6" x1="353.52" y1="1172.67" x2="786.53" y2="922.67"/>
	</g>
	<g class="st2">
		<line class="st6" x1="353.52" y1="922.67" x2="786.53" y2="1172.67"/>
	</g>
	<g class="st2">
		<line class="st6" x1="820" y1="1024" x2="320" y2="1024"/>
	</g>
	<g class="st2">
		<line class="st6" x1="819.17" y1="1073" x2="319.17" y2="1073"/>
	</g>
	<g class="st2">
		<line class="st6" x1="445.4" y1="830.99" x2="695.4" y2="1264.01"/>
	</g>
	<g class="st2">
		<line class="st6" x1="695.4" y1="831.38" x2="445.4" y2="1264.39"/>
	</g>
	<g class="st2">
		<line class="st6" x1="753.72" y1="878" x2="386.49" y2="1217.33"/>
	</g>
	<g class="st2">
		<line class="st6" x1="386.63" y1="877.87" x2="753.87" y2="1217.2"/>
	</g>
</g>
<g id="etoile" class="st0">
	<path class="st7" d="M569.74,1036.65v-13.8c0-0.71,0.86-1.07,1.36-0.56l2.85,2.86c0.2,0.2,0.28,0.49,0.21,0.76l-2.85,10.94
		C571.07,1037.76,569.74,1037.59,569.74,1036.65z"/>
	<path class="st7" d="M573.26,1020.12h13.74c0.94,0,1.11-1.34,0.2-1.57l-10.89-2.86c-0.28-0.07-0.57,0.01-0.77,0.21l-2.85,2.86
		C572.19,1019.26,572.55,1020.12,573.26,1020.12z"/>
	<path class="st8" d="M568.94,1018.44l-2.74-2.42c-0.2-0.18-0.3-0.45-0.26-0.72l3.6-23.27c0.15-0.97,0.72-1.01,0.73-0.03l0,25.83
		C570.27,1018.53,569.46,1018.9,568.94,1018.44z"/>
	<path class="st8" d="M566.75,1020.42h-13.73c-0.94,0-1.11,1.34-0.2,1.58l10.88,2.86c0.28,0.07,0.57-0.01,0.77-0.21l2.85-2.86
		C567.82,1021.28,567.47,1020.42,566.75,1020.42z"/>
</g>
<g id="etoile_test">
	<path class="st9" d="M570.15,949.59v-33.12c0-1.71,2.95-2.56,4.68-1.35l9.78,6.87c0.68,0.48,0.95,1.18,0.71,1.83l-9.78,26.25
		C574.72,952.24,570.15,951.83,570.15,949.59z"/>
	<path class="st9" d="M582.25,909.92h47.15c3.22,0,3.81-3.21,0.7-3.78l-37.37-6.87c-0.95-0.17-1.95,0.02-2.64,0.5l-9.78,6.87
		C578.58,907.85,579.81,909.92,582.25,909.92z"/>
	<path class="st10" d="M567.43,905.88l-9.42-5.81c-0.7-0.43-1.04-1.08-0.89-1.73l12.34-55.85c0.51-2.33,2.48-2.42,2.51-0.06l0,62
		C571.99,906.09,569.2,906.98,567.43,905.88z"/>
	<path class="st10" d="M559.9,910.63h-47.09c-3.23,0-3.82,3.21-0.7,3.79l37.32,6.86c0.95,0.17,1.96-0.02,2.65-0.5l9.77-6.86
		C563.58,912.7,562.35,910.63,559.9,910.63z"/>
</g>
<g id="bird">
	<path class="st11" d="M138.11,1001.59c180-15,313.68-31.93,432,78c126.56,117.58,90.21,277.91,98.07,331.53"/>
	<path class="st11" d="M474.11,1413"/>
	<path class="st11" d="M571.3,1003.5"/>
	<path class="st11" d="M533.39,1051.77c0-30.24,28.38-77.93,37.02-77.93c3.23,0,36.38,37.14,36.38,78.9"/>
	<path class="st11" d="M1001.92,1002.38c-180-15-313.68-31.93-432,78c-126.56,117.58-90.21,277.12-98.06,330.74"/>
	<path class="st12" d="M669.11,1413c-15.93-31.62-52.05-123.93-101.55-162.13"/>
	<path class="st12" d="M470.92,1413c15.93-31.62,54.16-124.23,103.66-162.44"/>
	<path class="st11" d="M495.87,1189.68c-35.43,2.06-119.62-27.19-174.13-58.68c-13.69-7.91-29.11-17.89-34.17-25.48
		c-20.34-30.5,76.12-25.52,70.93-25.52c-176.18,0-215.13-42.01-223.54-50.76c-8.16-8.49-6.94-26.73,3.14-27.65"/>
	<path class="st11" d="M644.02,1190.68c35.43,2.06,119.62-27.19,174.13-58.68c13.69-7.91,29.11-17.89,34.17-25.48
		c20.34-30.5-76.12-25.52-70.93-25.52c176.18,0,215.13-42.01,223.54-50.76c8.16-8.49,6.94-26.73-3.14-27.65"/>
	<g>
	</g>
	<g>
	</g>
	<g>
	</g>
	<g>
	</g>
	<g>
	</g>
	<g>
	</g>
	<g>
	</g>
	<g>
	</g>
	<g>
	</g>
	<g>
	</g>
	<g>
	</g>
	<g>
	</g>
	<g>
	</g>
	<g>
	</g>
	<g>
	</g>
</g>
</svg>
